<svg width="24" height="24" fill="none" xmlns="http://www.w3.org/2000/svg"><path fill-rule="evenodd" clip-rule="evenodd" d="M16.528 6a13.88 13.88 0 00-.058-.243c-.264-1.056-.68-2.203-1.358-3.107C14.413 1.718 13.392 1 12 1c-1.393 0-2.414.718-3.113 1.65-.677.904-1.093 2.051-1.357 3.107L7.47 6h-1.6a3 3 0 00-2.993 2.8l-.734 11A3 3 0 005.138 23h13.724a3 3 0 002.994-3.2l-.734-11A3 3 0 0018.13 6h-1.6zm-9.057 8.5c.573 0 1.527-3.932 1.529-4.502a6.786 6.786 0 01.007-.306A18.307 18.307 0 019.147 8h5.706A19.36 19.36 0 0115 9.927V10s.471 4.5 1.471 4.5.53-4.501.53-4.501a7.374 7.374 0 00-.009-.378A20.135 20.135 0 0016.868 8h1.26a1 1 0 01.999.933l.733 11A1 1 0 0118.862 21H5.138a1 1 0 01-.998-1.067l.733-11A1 1 0 015.871 8h1.261a21.283 21.283 0 00-.13 1.893C7 9.928 7 9.963 7 9.997c0 .57-.1 4.503.471 4.503zM9.533 6h4.933c-.23-.847-.545-1.605-.954-2.15C13.086 3.282 12.607 3 12 3s-1.087.282-1.513.85c-.408.545-.722 1.303-.954 2.15z" fill="#0F0F0F"/></svg>