<svg width="24" height="25" fill="none" xmlns="http://www.w3.org/2000/svg"><path fill-rule="evenodd" clip-rule="evenodd" d="M20 1.5a3 3 0 013 3v16a3 3 0 01-3 3H4a3 3 0 01-3-3v-16a3 3 0 013-3h16zm0 2a1 1 0 011 1v16a1 1 0 01-1 1h-5v-7h2.076a1 1 0 00.949-.684l.443-1.329a.75.75 0 00-.712-.987H15v-2c0-.5.5-1 1-1h2a1 1 0 001-1v-.686a.71.71 0 00-.519-.695C17.171 5.773 16 5.773 16 5.773c-2.5 0-4 1.727-4 3.227v2.5h-2a1 1 0 00-1 1v1a1 1 0 001 1h2v7H4a1 1 0 01-1-1v-16a1 1 0 011-1h16z" fill="#0F0F0F"/></svg>