<svg width="24" height="25" fill="none" xmlns="http://www.w3.org/2000/svg"><path fill-rule="evenodd" clip-rule="evenodd" d="M19.783 4.418c.348-.082.591-.163.79-.249.28-.12.51-.262.876-.504A1 1 0 0123 4.5c0 1.081-.134 1.967-.446 2.747a5.47 5.47 0 01-1.072 1.673c-.186 3.363-1.16 6.004-2.648 8.005-1.543 2.074-3.595 3.402-5.759 4.146-2.157.741-4.436.907-6.478.656-2.029-.25-3.904-.921-5.21-1.938a1 1 0 01.755-1.779c1.285.184 2.523-.109 3.541-.527a6.44 6.44 0 01-.565-.348c-.927-.642-1.676-1.514-2.012-2.188A1 1 0 013.4 13.7c-1.354-1.117-1.9-2.663-1.9-3.699a1 1 0 01.722-.96 7.36 7.36 0 01-.24-.888c-.266-1.286-.242-2.739.047-3.894A1 1 0 013.866 4c1.078 1.868 3.065 3.01 4.915 3.686.87.318 1.675.52 2.279.645.13-1.22.47-2.227.994-3.027a4.585 4.585 0 012.686-1.957c1.783-.48 3.76.067 5.043 1.071zm-9.035 5.89a18.335 18.335 0 01-2.654-.744c-1.357-.496-2.933-1.27-4.253-2.468.023.22.057.44.1.652.222 1.071.633 1.671 1.006 1.858a1 1 0 01.49 1.241c-.239.648-.869.701-1.441.558.46.69 1.288 1.379 2.668 1.609a1 1 0 01.032 1.967l-.87.174c.133.116.277.23.43.336.698.482 1.397.69 2.002.539a1 1 0 01.882 1.738c-.644.536-1.396.966-2.15 1.323-.353.168-.749.333-1.178.479.33.07.674.128 1.029.172 1.77.218 3.741.07 5.584-.563 1.836-.63 3.534-1.74 4.804-3.447 1.268-1.705 2.153-4.065 2.272-7.269a1 1 0 01.292-.67c.45-.45.821-.965 1.004-1.578-.32.1-.68.186-1.11.268a1 1 0 01-.894-.275c-.764-.765-2.276-1.268-3.533-.93A2.586 2.586 0 0013.728 6.4C13.315 7.03 13 8.011 13 9.5a1 1 0 01-.33.742c-.498.45-1.336.184-1.921.067z" fill="#0F0F0F"/></svg>