<svg width="24" height="25" fill="none" xmlns="http://www.w3.org/2000/svg"><path fill-rule="evenodd" clip-rule="evenodd" d="M9.496 7.632A1 1 0 008 8.5v8a1 1 0 001.496.868l7-4a1 1 0 000-1.736l-7-4zm4.488 4.868L10 14.777v-4.554l3.984 2.277z" fill="#0F0F0F"/><path fill-rule="evenodd" clip-rule="evenodd" d="M0 12.5c0-3.75 0-5.625.955-6.939A5 5 0 012.06 4.455C3.375 3.5 5.251 3.5 9 3.5h6c3.75 0 5.625 0 6.939.955a5 5 0 011.106 1.106C24 6.875 24 8.751 24 12.5c0 3.75 0 5.625-.955 6.939a5 5 0 01-1.106 1.106c-1.314.955-3.19.955-6.939.955H9c-3.75 0-5.625 0-6.939-.955A5 5 0 01.955 19.44C0 18.125 0 16.249 0 12.5zm9-7h6c1.92 0 3.198.003 4.167.108.932.1 1.337.276 1.596.465.255.185.479.409.664.664.189.26.364.664.465 1.596.105.969.108 2.248.108 4.167 0 1.92-.003 3.198-.108 4.167-.1.932-.276 1.337-.465 1.596a2.988 2.988 0 01-.664.664c-.259.189-.664.364-1.596.465-.969.105-2.248.108-4.167.108H9c-1.92 0-3.198-.003-4.167-.108-.932-.1-1.337-.276-1.596-.465a3.003 3.003 0 01-.664-.664c-.189-.259-.364-.664-.465-1.596C2.003 15.698 2 14.42 2 12.5s.003-3.198.108-4.167c.1-.932.276-1.337.465-1.596a3 3 0 01.664-.664c.259-.189.664-.364 1.596-.465C5.802 5.503 7.08 5.5 9 5.5z" fill="#0F0F0F"/></svg>